<svg width="24" height="24" viewBox="0 0 24 24" fill="none" xmlns="http://www.w3.org/2000/svg">
<g clip-path="url(#clip0_57_1721)">
<path d="M7.47998 5.65003L10.58 3.25003C10.98 2.85003 11.88 2.65003 12.48 2.65003H16.28C17.48 2.65003 18.78 3.55003 19.08 4.75003L21.48 12.05C21.98 13.45 21.08 14.65 19.58 14.65H15.58C14.98 14.65 14.48 15.15 14.58 15.85L15.08 19.05C15.28 19.95 14.68 20.95 13.78 21.25C12.98 21.55 11.98 21.15 11.58 20.55L7.47998 14.45" stroke="#0B0F0E" stroke-width="1.5" stroke-miterlimit="10"/>
<path d="M2.37988 5.6501V15.4501C2.37988 16.8501 2.97988 17.3501 4.37988 17.3501H5.37988C6.77988 17.3501 7.37988 16.8501 7.37988 15.4501V5.6501C7.37988 4.2501 6.77988 3.7501 5.37988 3.7501H4.37988C2.97988 3.7501 2.37988 4.2501 2.37988 5.6501Z" stroke="#0B0F0E" stroke-width="1.5" stroke-linecap="round" stroke-linejoin="round"/>
</g>
<defs>
<clipPath id="clip0_57_1721">
<rect width="24" height="24" fill="white" transform="matrix(1 0 0 -1 0 24)"/>
</clipPath>
</defs>
</svg>
